<svg width="16" height="16" viewBox="0 0 16 16" fill="none" xmlns="http://www.w3.org/2000/svg">
<path d="M9.89915 8.00033L15.8418 2.05771C16.0527 1.84668 16.0527 1.50518 15.8418 1.29422L14.706 0.158005C14.6049 0.0569165 14.4676 0 14.3244 0C14.181 0 14.0438 0.0569165 13.9426 0.158005L8.00001 6.10108L2.0574 0.158005C1.95624 0.0569165 1.81898 0 1.67567 0C1.5324 0 1.3951 0.0569165 1.29399 0.158005L0.158264 1.29422C-0.0527546 1.50518 -0.0527546 1.84668 0.158264 2.05771L6.10088 8.00037L0.158854 13.9423C-0.0520601 14.1533 -0.0520601 14.4948 0.158854 14.7058L1.29465 15.842C1.39573 15.9431 1.53303 16 1.67633 16C1.81964 16 1.9569 15.9431 2.05809 15.842L7.99998 9.89962L13.9419 15.842C14.0431 15.9431 14.1803 16 14.3236 16C14.467 16 14.6042 15.9431 14.7053 15.842L15.8411 14.7058C16.052 14.4948 16.052 14.1533 15.8411 13.9423L9.89915 8.00033Z" fill="#FF0000"/>
</svg>
