<svg width="5" height="21" viewBox="0 0 5 21" fill="none" xmlns="http://www.w3.org/2000/svg">
<path d="M2.5026 5.66536C3.83781 5.66536 4.91927 4.58391 4.91927 3.2487C4.91927 1.91349 3.83781 0.832031 2.5026 0.832031C1.1674 0.832031 0.0859375 1.91349 0.0859375 3.2487C0.0859375 4.58391 1.1674 5.66536 2.5026 5.66536ZM2.5026 8.08203C1.1674 8.08203 0.0859375 9.16349 0.0859375 10.4987C0.0859375 11.8339 1.1674 12.9154 2.5026 12.9154C3.83781 12.9154 4.91927 11.8339 4.91927 10.4987C4.91927 9.16349 3.83781 8.08203 2.5026 8.08203ZM2.5026 15.332C1.1674 15.332 0.0859375 16.4135 0.0859375 17.7487C0.0859375 19.0839 1.1674 20.1654 2.5026 20.1654C3.83781 20.1654 4.91927 19.0839 4.91927 17.7487C4.91927 16.4135 3.83781 15.332 2.5026 15.332Z" fill="black" fill-opacity="0.5"/>
</svg>
