<svg width="12" height="12" viewBox="0 0 12 12" fill="none" xmlns="http://www.w3.org/2000/svg">
<g id="group">
<path id="Vector" d="M2.66667 4.58333C1.60812 4.58333 0.75 3.72521 0.75 2.66667C0.75 1.60812 1.60812 0.75 2.66667 0.75C3.72521 0.75 4.58333 1.60812 4.58333 2.66667C4.58333 3.72521 3.72521 4.58333 2.66667 4.58333Z" stroke="#6A788A" stroke-width="1.5" stroke-linecap="round" stroke-linejoin="round"/>
<path id="Vector_2" d="M9.33332 4.58333C8.27478 4.58333 7.41666 3.72521 7.41666 2.66667C7.41666 1.60812 8.27478 0.75 9.33332 0.75C10.3919 0.75 11.25 1.60812 11.25 2.66667C11.25 3.72521 10.3919 4.58333 9.33332 4.58333Z" stroke="#6A788A" stroke-width="1.5" stroke-linecap="round" stroke-linejoin="round"/>
<path id="Vector_3" d="M9.33332 11.25C8.27478 11.25 7.41666 10.3919 7.41666 9.33332C7.41666 8.27478 8.27478 7.41666 9.33332 7.41666C10.3919 7.41666 11.25 8.27478 11.25 9.33332C11.25 10.3919 10.3919 11.25 9.33332 11.25Z" stroke="#6A788A" stroke-width="1.5" stroke-linecap="round" stroke-linejoin="round"/>
<path id="Vector_4" d="M2.66667 11.25C1.60812 11.25 0.75 10.3919 0.75 9.33332C0.75 8.27478 1.60812 7.41666 2.66667 7.41666C3.72521 7.41666 4.58333 8.27478 4.58333 9.33332C4.58333 10.3919 3.72521 11.25 2.66667 11.25Z" stroke="#6A788A" stroke-width="1.5" stroke-linecap="round" stroke-linejoin="round"/>
</g>
</svg>
