<svg width="24" height="24" viewBox="0 0 30 30" fill="#13ad64" xmlns="http://www.w3.org/2000/svg">
<path fill-rule="evenodd" clip-rule="evenodd" d="M26.707 1.29006C27.098 1.68006 27.098 2.31998 26.707 2.70998L26.007 3.41005H26.013C26.033 3.43005 26.052 3.44999 26.07 3.46999L28.645 6.04006C29.035 6.43006 29.035 7.06998 28.645 7.45998C28.254 7.84998 27.621 7.84998 27.23 7.45998L24.656 4.88002L21.883 7.66005L24.457 10.23C24.848 10.62 24.848 11.25 24.457 11.64C24.067 12.04 23.433 12.04 23.043 11.64L20.469 9.06997C20.448 9.04996 20.427 9.03003 20.408 9.01003L15.568 13.85C17.076 15.46 18 17.62 18 20C18 24.97 13.971 29 9 29C4.029 29 0 24.97 0 20C0 15.03 4.029 11 9 11C10.868 11 12.604 11.5701 14.042 12.5401L25.293 1.29006C25.683 0.900059 26.317 0.900059 26.707 1.29006ZM2 20C2 16.13 5.134 13 9 13C12.866 13 16 16.13 16 20C16 23.87 12.866 27 9 27C5.134 27 2 23.87 2 20Z" fill="#13ad64"/>

</svg>
