<svg width="16" height="16" viewBox="0 0 14 14" fill="none" stroke="#6A788A" xmlns="http://www.w3.org/2000/svg">
<path d="M7 13C10.3137 13 13 10.3137 13 7C13 3.68629 10.3137 1 7 1C3.68629 1 1 3.68629 1 7C1 10.3137 3.68629 13 7 13Z"  stroke-width="1.5" stroke-linecap="round" stroke-linejoin="round"/>
<path d="M1 7L13 7"  stroke-width="1.5" stroke-linecap="round" stroke-linejoin="round"/>
<path d="M6.99967 1C8.66719 2.64301 9.61484 4.77522 9.66634 7C9.61484 9.22478 8.66719 11.357 6.99967 13C5.33215 11.357 4.38451 9.22478 4.33301 7C4.38451 4.77522 5.33215 2.64301 6.99967 1Z" stroke-width="1.5" stroke-linecap="round" stroke-linejoin="round"/>

  <defs>
    <linearGradient id="primaryGradientSvg" x1="1" y1="7" x2="13" y2="7" gradientUnits="userSpaceOnUse">
      <stop stop-color="#00F260"/>
      <stop offset="1" stop-color="#04D4C8"/>
    </linearGradient>
    <linearGradient id="paint1_linear_638_1436" x1="1" y1="7.5" x2="13" y2="7.5" gradientUnits="userSpaceOnUse">
      <stop stop-color="#00F260"/>
      <stop offset="1" stop-color="#04D4C8"/>
    </linearGradient>
    <linearGradient id="paint2_linear_638_1436" x1="4.33301" y1="7" x2="9.66634" y2="7" gradientUnits="userSpaceOnUse">
      <stop stop-color="#00F260"/>
      <stop offset="1" stop-color="#04D4C8"/>
    </linearGradient>
  </defs>

</svg>
