<svg width="108" height="32" viewBox="0 0 108 32" fill="none" xmlns="http://www.w3.org/2000/svg">
<path d="M13.8539 32C13.8539 32 0 27.9109 0 7.72495L0 0L27.7126 0V7.72495C27.7126 27.1884 13.8586 32 13.8586 32" fill="#4EC202"/>
<path d="M21.8526 7.78634L10.6948 7.78634L10.6948 14.1986L21.8573 14.1986V16.1157C21.8573 19.3643 20.9412 21.985 16.0022 21.9944H10.6948L10.6948 30.4654C12.5269 31.6034 13.8537 31.9953 13.8537 31.9953C13.8537 31.9953 27.7077 27.1837 27.7077 7.72024V1.89819C27.7077 5.14683 26.2722 7.72024 21.8526 7.78162" fill="#055330"/>
<path d="M36 15.9953V5.03467L42.7808 5.03467V5.84025C42.7808 6.66479 42.1061 7.33294 41.2734 7.33294H38.7085V9.63122H42.0822V10.4084C42.0822 11.2471 41.3931 11.9295 40.5461 11.9295H38.7085V15.9906H36V15.9953Z" fill="#1D1D1B"/>
<path d="M47.0205 10.0008H48.1977C48.6427 10.0008 48.9873 9.88237 49.2361 9.65017C49.4849 9.41798 49.6094 9.08153 49.6094 8.65504C49.6094 8.05323 49.394 7.66465 48.9586 7.48932C48.7193 7.38981 48.3795 7.33768 47.9345 7.33768H47.0205V10.0056V10.0008ZM44.312 15.9953V5.03467H48.169C49.15 5.03467 49.8678 5.11996 50.3224 5.2953C50.9636 5.53697 51.4613 5.93502 51.825 6.48471C52.1839 7.02966 52.3657 7.69782 52.3657 8.48445C52.3657 9.09574 52.2222 9.68335 51.935 10.2378C51.6479 10.7969 51.2364 11.2045 50.71 11.4746V11.503C50.8153 11.6357 50.954 11.8537 51.1263 12.1617L53.2797 15.9953L50.2602 15.9953L48.2934 12.2991H47.0253V15.9953H44.3168H44.312Z" fill="#1D1D1B"/>
<path d="M54.5 15.9953V5.02991L61.4339 5.02991V7.33292L57.2085 7.33292V9.32318H60.5822V11.6215H57.2085V13.6923H61.6541V15.9953H54.5Z" fill="#1D1D1B"/>
<path d="M63.3867 15.9953V5.02991L70.3206 5.02991V7.33292L66.0952 7.33292V9.32318H69.4689V11.6215H66.0952V13.6923H70.536V15.9953H63.3867Z" fill="#1D1D1B"/>
<path d="M74.981 13.6923H76.0959C77.0434 13.6923 77.7852 13.4174 78.3163 12.863C78.8475 12.3133 79.1155 11.5172 79.1155 10.4889C79.1155 9.4606 78.8475 8.68345 78.3115 8.14324C77.7756 7.60303 77.0339 7.33292 76.0959 7.33292H74.981V13.6923ZM72.2725 15.9906V5.02991H76.206C77.9622 5.02991 79.35 5.51326 80.3788 6.47995C81.4076 7.44665 81.9197 8.78297 81.9197 10.4889C81.9197 12.1948 81.4076 13.5501 80.3788 14.5263C79.35 15.5025 77.9622 15.9906 76.206 15.9906H72.2725Z" fill="#1D1D1B"/>
<path d="M85.8775 10.4415C85.8775 11.3798 86.1599 12.1617 86.7198 12.7872C87.2844 13.4079 87.9974 13.7207 88.8636 13.7207C89.7297 13.7207 90.4427 13.4079 91.0074 12.7872C91.5721 12.1617 91.8496 11.3798 91.8496 10.4415C91.8496 9.50325 91.5673 8.79244 91.0074 8.19536C90.4427 7.59828 89.7297 7.29975 88.8636 7.29975C87.9974 7.29975 87.2796 7.59828 86.7198 8.19536C86.1551 8.79244 85.8775 9.54116 85.8775 10.4415ZM83.0781 10.4415C83.0781 8.84457 83.6189 7.51773 84.7051 6.44678C85.7866 5.38057 87.1744 4.84509 88.8684 4.84509C90.5624 4.84509 91.9501 5.38057 93.0316 6.44678C94.1131 7.51773 94.6586 8.84457 94.6586 10.4415C94.6586 12.0385 94.1179 13.4411 93.0316 14.5358C91.9453 15.6304 90.5576 16.1754 88.8684 16.1754C87.1792 16.1754 85.7866 15.6304 84.7051 14.5358C83.6237 13.4411 83.0781 12.0764 83.0781 10.4415Z" fill="#1D1D1B"/>
<path d="M95.9414 15.9953L96.8554 5.03467H99.7984L101.406 9.66439L101.961 11.4746H101.995C102.201 10.7401 102.387 10.1335 102.55 9.66439L104.158 5.03467H107.101L108 15.9953H105.292L104.952 11.0576C104.933 10.8112 104.923 10.5363 104.923 10.2283C104.923 9.92028 104.923 9.67861 104.938 9.4938L104.952 9.21895H104.923C104.675 9.98662 104.469 10.5979 104.306 11.0576L103.143 14.2325H100.822L99.6596 11.0576L99.0375 9.21895H99.0088C99.0519 9.89185 99.0519 10.5079 99.0088 11.0576L98.669 15.9953H95.9414Z" fill="#1D1D1B"/>
<path d="M36.0767 27.027V19.3361H38.9335C39.7279 19.3361 40.3691 19.5114 40.8524 19.8573C41.3357 20.2032 41.575 20.7008 41.575 21.3453C41.575 21.677 41.4937 21.9897 41.3357 22.2883C41.1778 22.5868 40.9577 22.819 40.6754 22.9801V22.9991C41.0869 23.1223 41.3932 23.345 41.5941 23.672C41.7951 23.999 41.8908 24.3496 41.8908 24.7287C41.8908 25.5106 41.6133 26.0887 41.0534 26.4583C40.4935 26.8327 39.7901 27.0175 38.9335 27.0175H36.0767V27.027ZM37.9764 22.3167H38.9526C39.1776 22.3167 39.345 22.2504 39.4647 22.1129C39.5795 21.9755 39.6369 21.8097 39.6369 21.6059C39.6369 21.4021 39.5795 21.2552 39.4551 21.132C39.3355 21.0088 39.1584 20.9472 38.9191 20.9472H37.9764V22.312V22.3167ZM37.9764 25.4158H39.1153C39.3738 25.4158 39.5795 25.34 39.7231 25.1836C39.8666 25.0273 39.9384 24.8377 39.9384 24.6102C39.9384 24.3828 39.8714 24.1932 39.7326 24.0463C39.5939 23.8994 39.3929 23.8236 39.1249 23.8236H37.9717V25.4158H37.9764Z" fill="#1D1D1B"/>
<path d="M43.1016 27.027V19.3361H45.8053C46.4944 19.3361 46.9968 19.3977 47.3126 19.5209C47.7625 19.6915 48.1118 19.971 48.3654 20.3549C48.619 20.7387 48.7435 21.2079 48.7435 21.7575C48.7435 22.1888 48.643 22.5963 48.442 22.9896C48.241 23.3829 47.9539 23.6672 47.5854 23.8568V23.8757C47.6572 23.9705 47.7577 24.1222 47.8773 24.3401L49.3847 27.027H47.2696L45.8914 24.4349H45.0013V27.027H43.1016ZM45.0013 22.8238H45.8244C46.1355 22.8238 46.3795 22.7432 46.5518 22.5773C46.724 22.4115 46.8102 22.1793 46.8102 21.876C46.8102 21.4543 46.6571 21.1794 46.3556 21.061C46.1881 20.9899 45.9488 20.952 45.6378 20.952H44.9965V22.8238H45.0013Z" fill="#1D1D1B"/>
<path d="M49.8203 23.1318C49.8203 22.0134 50.1984 21.0799 50.9592 20.3312C51.7201 19.5825 52.6915 19.2081 53.8783 19.2081C55.065 19.2081 56.0412 19.5825 56.7973 20.3312C57.5582 21.0799 57.9362 22.0134 57.9362 23.1318C57.9362 24.2501 57.5582 25.2358 56.7973 26.0034C56.0365 26.7711 55.065 27.155 53.8783 27.155C52.6915 27.155 51.7153 26.7711 50.9592 26.0034C50.1984 25.2358 49.8203 24.2786 49.8203 23.1318ZM51.7871 23.1318C51.7871 23.7905 51.9833 24.3402 52.3805 24.7761C52.7729 25.2121 53.2753 25.4301 53.8831 25.4301C54.4908 25.4301 54.9933 25.2121 55.3856 24.7761C55.778 24.3402 55.979 23.7905 55.979 23.1318C55.979 22.4731 55.7828 21.9755 55.3856 21.5585C54.9885 21.1368 54.4908 20.9283 53.8831 20.9283C53.2753 20.9283 52.7729 21.1368 52.3805 21.5585C51.9833 21.9755 51.7871 22.5015 51.7871 23.1318Z" fill="#1D1D1B"/>
<path d="M59.1514 27.027V19.3361H61.0511V22.3025H61.8312L63.439 19.3361H65.4823L63.3864 23.0133V23.037L65.602 27.027H63.4725L61.8312 23.9089H61.0511V27.027H59.1514Z" fill="#1D1D1B"/>
<path d="M66.4775 27.027V19.3361H71.3442V20.9472H68.3773V22.3451H70.746V23.9563H68.3773V25.4064H71.4926V27.0175H66.4775V27.027Z" fill="#1D1D1B"/>
<path d="M72.7129 27.027V19.3361H75.4166C76.1057 19.3361 76.6081 19.3977 76.924 19.5209C77.3738 19.6915 77.7231 19.971 77.9767 20.3549C78.2304 20.7387 78.3548 21.2079 78.3548 21.7575C78.3548 22.1888 78.2543 22.5963 78.0533 22.9896C77.8523 23.3829 77.5652 23.6672 77.1967 23.8568V23.8757C77.2685 23.9705 77.369 24.1222 77.4887 24.3401L78.996 27.027H76.8809L75.5027 24.4349H74.6127V27.027H72.7129ZM74.6127 22.8238H75.4357C75.7468 22.8238 75.9908 22.7432 76.1631 22.5773C76.3354 22.4115 76.4215 22.1793 76.4215 21.876C76.4215 21.4543 76.2684 21.1794 75.9669 21.061C75.7994 20.9899 75.5602 20.952 75.2491 20.952H74.6079V22.8238H74.6127Z" fill="#1D1D1B"/>
</svg>
