<svg width="200" height="40" viewBox="0 0 200 40" fill="none" xmlns="http://www.w3.org/2000/svg">
<path d="M25.9867 40C25.9867 40 0 34.8673 0 9.67552V0H52.0621V9.67552C51.9734 33.9823 25.9867 40 25.9867 40Z" fill="#51AF3D"/>
<path d="M66.4302 19.41V5.72266H79.0244V6.72561C79.0244 7.72856 77.7827 8.55452 76.275 8.55452H71.4856V11.4454H77.7827V12.4483C77.7827 13.5103 76.541 14.3362 74.9446 14.3362H71.5743V19.41H66.4302Z" fill="black"/>
<path d="M86.9182 11.9173H89.1355C89.9338 11.9173 90.5546 11.7994 91.0867 11.5044C91.5302 11.2094 91.7963 10.7964 91.7963 10.2654C91.7963 9.49847 91.3528 9.02649 90.5546 8.7905C90.1111 8.67251 89.4903 8.61351 88.6921 8.61351H87.0069V11.9173H86.9182ZM81.8628 19.41V5.72266H89.0468C90.8207 5.72266 92.151 5.84065 93.038 6.07664C94.191 6.37163 95.1666 6.9026 95.7874 7.55157C96.497 8.25953 96.763 9.08549 96.763 10.0294C96.763 10.7964 96.4969 11.5044 95.9648 12.2123C95.4326 12.9203 94.6344 13.3923 93.6588 13.7463V13.8053C93.8362 13.9822 94.1023 14.2182 94.457 14.6312L98.4482 19.41H92.8606L89.2242 14.8082H86.8295V19.41H81.8628Z" fill="black"/>
<path d="M100.754 19.41V5.72266H113.614V8.61351H105.809V11.0914H112.018V13.9232H105.809V16.5191H113.969V19.41H100.754Z" fill="black"/>
<path d="M117.251 19.41V5.72266H130.111V8.61351H122.218V11.0914H128.515V13.9232H122.218V16.5191H130.466V19.41H117.251Z" fill="black"/>
<path d="M138.714 16.5191H140.754C142.528 16.5191 143.858 16.1651 144.834 15.5162C145.809 14.8082 146.342 13.8643 146.342 12.5663C146.342 11.2684 145.809 10.3244 144.834 9.61646C143.858 8.9675 142.439 8.61351 140.754 8.61351H138.714V16.5191ZM133.659 19.41V5.72266H140.931C144.213 5.72266 146.785 6.31263 148.648 7.55157C150.51 8.73151 151.486 10.4424 151.486 12.5663C151.486 14.6902 150.51 16.4011 148.648 17.5811C146.785 18.82 144.124 19.41 140.931 19.41H133.659Z" fill="black"/>
<path d="M158.935 12.449C158.935 13.6289 159.468 14.5729 160.532 15.3988C161.596 16.1658 162.927 16.5788 164.523 16.5788C166.119 16.5788 167.45 16.1658 168.514 15.3988C169.578 14.6318 170.111 13.6289 170.111 12.449C170.111 11.328 169.578 10.3841 168.514 9.67609C167.45 8.90913 166.119 8.55515 164.523 8.55515C162.927 8.55515 161.596 8.90913 160.532 9.67609C159.468 10.4431 158.935 11.328 158.935 12.449ZM153.703 12.449C153.703 10.4431 154.678 8.79114 156.718 7.4932C158.758 6.13627 161.33 5.4873 164.434 5.4873C167.539 5.4873 170.111 6.13627 172.151 7.4932C174.19 8.85014 175.166 10.5021 175.166 12.449C175.166 14.4549 174.19 16.1658 172.151 17.5227C170.111 18.8796 167.539 19.5876 164.434 19.5876C161.33 19.5876 158.758 18.8796 156.718 17.5227C154.678 16.2248 153.703 14.5139 153.703 12.449Z" fill="black"/>
<path d="M177.561 19.4096L179.246 5.78125H184.656L187.672 11.563L188.736 13.8048H188.825C189.18 12.8609 189.534 12.1529 189.889 11.563L192.905 5.78125H198.315L200 19.4096H194.945L194.324 13.2739C194.324 12.9789 194.235 12.6249 194.235 12.2709C194.235 11.9169 194.235 11.563 194.235 11.327V10.973H194.146C193.703 11.9169 193.348 12.6839 192.993 13.2739L190.865 17.2267H186.608L184.479 13.2739L183.326 10.973H183.237C183.326 11.7989 183.326 12.5659 183.237 13.2739L182.616 19.4096H177.561Z" fill="black"/>
<path d="M40.9757 9.73458H20.0444V17.7582H40.9757V20.1771C40.9757 24.2479 39.2906 27.4927 29.9779 27.5517H20.0444V38.1122C23.5034 39.5281 25.9868 40.0001 25.9868 40.0001C25.9868 40.0001 51.9735 33.9824 51.9735 9.67558V2.41895C51.9735 6.43075 49.3127 9.67558 40.9757 9.73458Z" fill="#0F5431"/>
<path d="M66.4302 33.038V23.4805H71.7517C73.2594 23.4805 74.4124 23.7165 75.2994 24.1294C76.1863 24.5424 76.6297 25.1914 76.6297 25.9583C76.6297 26.3713 76.4523 26.7843 76.1863 27.1383C75.9202 27.4923 75.4767 27.7873 74.9446 28.0232C75.7428 28.2002 76.275 28.4362 76.6297 28.8492C76.9845 29.2622 77.1619 29.6752 77.1619 30.1471C77.1619 31.0911 76.6297 31.8581 75.5654 32.271C74.5011 32.743 73.2594 32.979 71.663 32.979L66.4302 33.038ZM69.9778 27.1973H71.7517C72.1951 27.1973 72.4612 27.1383 72.7273 26.9613C72.9047 26.7843 73.0821 26.6073 73.0821 26.3123C73.0821 26.0763 72.9934 25.8993 72.7273 25.7224C72.5499 25.5454 72.1951 25.4864 71.7517 25.4864H69.9778V27.1973ZM69.9778 31.0321H72.1064C72.5499 31.0321 72.9934 30.9141 73.2594 30.7371C73.5255 30.5601 73.7029 30.3241 73.7029 30.0291C73.7029 29.7342 73.6142 29.4982 73.3481 29.3212C73.0821 29.1442 72.7273 29.0262 72.1951 29.0262H70.0665L69.9778 31.0321Z" fill="black"/>
<path d="M79.4678 33.0966V23.5391H84.5232C85.7649 23.5391 86.7405 23.5981 87.3614 23.775C88.1596 24.011 88.8691 24.365 89.3126 24.837C89.756 25.309 90.0221 25.8989 90.0221 26.6069C90.0221 27.1379 89.8447 27.6689 89.49 28.1408C89.1352 28.6128 88.603 28.9668 87.8935 29.2028C88.0709 29.3208 88.2483 29.4978 88.4257 29.7927L91.1751 33.1556H87.2727L84.7006 29.9107H83.0154V33.1556L79.4678 33.0966ZM83.0154 27.8458H84.5232C85.144 27.8458 85.5875 27.7278 85.8536 27.5509C86.2083 27.3739 86.297 27.0789 86.297 26.6659C86.297 26.1349 86.031 25.7809 85.4988 25.663C85.2327 25.545 84.7893 25.545 84.1684 25.545H83.0154V27.8458Z" fill="black"/>
<path d="M91.9736 28.2591C91.9736 26.8431 92.6832 25.7222 94.1022 24.7782C95.5213 23.8343 97.2951 23.3623 99.5124 23.3623C101.73 23.3623 103.504 23.8343 104.923 24.7782C106.342 25.7222 107.051 26.9021 107.051 28.2591C107.051 29.675 106.342 30.8549 104.923 31.8579C103.504 32.8018 101.73 33.2738 99.5124 33.2738C97.2951 33.2738 95.5213 32.8018 94.1022 31.8579C92.6832 30.8549 91.9736 29.675 91.9736 28.2591ZM95.61 28.2591C95.61 29.085 95.9648 29.793 96.6743 30.324C97.3838 30.8549 98.3594 31.1499 99.4237 31.1499C100.577 31.1499 101.464 30.8549 102.173 30.324C102.883 29.793 103.237 29.085 103.237 28.2591C103.237 27.4921 102.883 26.8431 102.173 26.3122C101.464 25.7812 100.488 25.5452 99.4237 25.5452C98.2707 25.5452 97.3838 25.7812 96.6743 26.3122C95.9648 26.8431 95.61 27.4921 95.61 28.2591Z" fill="black"/>
<path d="M109.269 33.0966V23.5391H112.816V27.2559H114.235L117.251 23.5391H121.065L117.162 28.0818L121.242 33.0376H117.34L114.324 29.1438H112.905V33.0376L109.269 33.0966Z" fill="black"/>
<path d="M122.838 33.1566V23.5991H131.885V25.605H126.386V27.3749H130.732V29.3808H126.386V31.2097H132.151V33.2156L122.838 33.1566Z" fill="black"/>
<path d="M134.368 33.1566V23.5991H139.424C140.665 23.5991 141.641 23.6581 142.262 23.8351C143.06 24.0711 143.769 24.4251 144.213 24.8971C144.656 25.369 144.922 25.959 144.922 26.667C144.922 27.1979 144.745 27.7289 144.39 28.2009C144.036 28.6729 143.503 29.0268 142.794 29.2628C142.971 29.3808 143.149 29.5578 143.326 29.8528L146.075 33.2156H142.173L139.601 29.9708H137.916V33.2156L134.368 33.1566ZM137.916 27.9649H139.424C140.044 27.9649 140.488 27.8469 140.754 27.6699C141.109 27.4929 141.197 27.1979 141.197 26.785C141.197 26.254 140.931 25.9 140.399 25.782C140.133 25.664 139.69 25.664 139.069 25.664H137.916V27.9649Z" fill="black"/>
</svg>
