<svg width="200" height="52" viewBox="0 0 200 52" fill="none" xmlns="http://www.w3.org/2000/svg">
<path d="M25.9867 52C25.9867 52 0 45.3274 0 12.5782V0H52.0621V12.5782C51.9734 44.177 25.9867 52 25.9867 52Z" fill="#51AF3D"/>
<path d="M66.4297 25.233V7.43945H79.0239V8.74329C79.0239 10.0471 77.7822 11.1209 76.2745 11.1209H71.4851V14.879H77.7822V16.1828C77.7822 17.5633 76.5406 18.6371 74.9441 18.6371H71.5738V25.233H66.4297Z" fill="black"/>
<path d="M86.9187 15.4926H89.136C89.9342 15.4926 90.5551 15.3392 91.0872 14.9557C91.5307 14.5722 91.7968 14.0353 91.7968 13.3451C91.7968 12.348 91.3533 11.7344 90.5551 11.4277C90.1116 11.2743 89.4908 11.1976 88.6926 11.1976H87.0074V15.4926H86.9187ZM81.8633 25.233V7.43945H89.0473C90.8212 7.43945 92.1515 7.59285 93.0385 7.89963C94.1914 8.28311 95.1671 8.97338 95.7879 9.81704C96.4974 10.7374 96.7635 11.8111 96.7635 13.0383C96.7635 14.0353 96.4974 14.9557 95.9653 15.876C95.4331 16.7964 94.6349 17.41 93.6593 17.8701V17.9468C93.8367 18.1769 94.1028 18.4837 94.4575 19.0206L98.4487 25.233H92.8611L89.2247 19.2507H86.83V25.233H81.8633Z" fill="black"/>
<path d="M100.754 25.233V7.43945H113.614V11.1976H105.809V14.4188H112.018V18.1002H105.809V21.4749H113.969V25.233H100.754Z" fill="black"/>
<path d="M117.25 25.233V7.43945H130.11V11.1976H122.217V14.4188H128.514V18.1002H122.217V21.4749H130.465V25.233H117.25Z" fill="black"/>
<path d="M138.712 21.4749H140.752C142.525 21.4749 143.856 21.0147 144.831 20.171C145.807 19.2507 146.339 18.0235 146.339 16.3362C146.339 14.6489 145.807 13.4218 144.831 12.5014C143.856 11.6577 142.437 11.1976 140.752 11.1976H138.712V21.4749ZM133.656 25.233V7.43945H140.929C144.211 7.43945 146.783 8.20642 148.645 9.81704C150.508 11.351 151.483 13.5751 151.483 16.3362C151.483 19.0973 150.508 21.3215 148.645 22.8554C146.783 24.466 144.122 25.233 140.929 25.233H133.656Z" fill="black"/>
<path d="M158.936 16.1849C158.936 17.7188 159.468 18.946 160.532 20.0197C161.597 21.0168 162.927 21.5536 164.524 21.5536C166.12 21.5536 167.45 21.0168 168.515 20.0197C169.579 19.0227 170.111 17.7188 170.111 16.1849C170.111 14.7277 169.579 13.5005 168.515 12.5802C167.45 11.5831 166.12 11.123 164.524 11.123C162.927 11.123 161.597 11.5831 160.532 12.5802C159.468 13.5772 158.936 14.7277 158.936 16.1849ZM153.703 16.1849C153.703 13.5772 154.679 11.4297 156.719 9.74243C158.759 7.97842 161.331 7.13477 164.435 7.13477C167.539 7.13477 170.111 7.97842 172.151 9.74243C174.191 11.5064 175.167 13.6539 175.167 16.1849C175.167 18.7926 174.191 21.0168 172.151 22.7808C170.111 24.5448 167.539 25.4651 164.435 25.4651C161.331 25.4651 158.759 24.5448 156.719 22.7808C154.679 21.0935 153.703 18.8693 153.703 16.1849Z" fill="black"/>
<path d="M177.559 25.2324L179.244 7.51562H184.654L187.669 15.0318L188.734 17.9463H188.822C189.177 16.7192 189.532 15.7988 189.887 15.0318L192.902 7.51562H198.312L199.998 25.2324H194.942L194.321 17.256C194.321 16.8726 194.233 16.4124 194.233 15.9522C194.233 15.492 194.233 15.0318 194.233 14.7251V14.2649H194.144C193.701 15.492 193.346 16.4891 192.991 17.256L190.862 22.3947H186.605L184.477 17.256L183.324 14.2649H183.235C183.324 15.3386 183.324 16.3357 183.235 17.256L182.614 25.2324H177.559Z" fill="black"/>
<path d="M40.9742 12.6529H20.043V23.0836H40.9742V26.2281C40.9742 31.5202 39.2891 35.7385 29.9765 35.8151H20.043V49.5438C23.5019 51.3845 25.9853 51.998 25.9853 51.998C25.9853 51.998 51.972 44.175 51.972 12.5762V3.14258C51.972 8.35792 49.3113 12.5762 40.9742 12.6529Z" fill="#0F5431"/>
<path d="M66.4297 42.9502V30.5254H71.7512C73.259 30.5254 74.4119 30.8322 75.2989 31.3691C76.1858 31.9059 76.6292 32.7496 76.6292 33.7466C76.6292 34.2835 76.4519 34.8204 76.1858 35.2806C75.9197 35.7407 75.4763 36.1242 74.9441 36.431C75.7423 36.6611 76.2745 36.9679 76.6292 37.5047C76.984 38.0416 77.1614 38.5785 77.1614 39.1921C77.1614 40.4192 76.6292 41.4162 75.5649 41.9531C74.5006 42.5667 73.259 42.8735 71.6625 42.8735L66.4297 42.9502ZM69.9774 35.3573H71.7512C72.1947 35.3573 72.4607 35.2806 72.7268 35.0505C72.9042 34.8204 73.0816 34.5903 73.0816 34.2068C73.0816 33.9 72.9929 33.6699 72.7268 33.4398C72.5494 33.2098 72.1947 33.1331 71.7512 33.1331H69.9774V35.3573ZM69.9774 40.3425H72.106C72.5494 40.3425 72.9929 40.1891 73.259 39.959C73.525 39.7289 73.7024 39.4222 73.7024 39.0387C73.7024 38.6552 73.6137 38.3484 73.3477 38.1183C73.0816 37.8882 72.7268 37.7348 72.1947 37.7348H70.0661L69.9774 40.3425Z" fill="black"/>
<path d="M79.4688 43.0244V30.5996H84.5242C85.7659 30.5996 86.7415 30.6763 87.3623 30.9064C88.1606 31.2132 88.8701 31.6734 89.3135 32.2869C89.757 32.9005 90.0231 33.6675 90.0231 34.5878C90.0231 35.2781 89.8457 35.9683 89.4909 36.5819C89.1362 37.1955 88.604 37.6557 87.8945 37.9624C88.0719 38.1158 88.2492 38.3459 88.4266 38.7294L91.1761 43.1011H87.2736L84.7016 38.8828H83.0164V43.1011L79.4688 43.0244ZM83.0164 36.1984H84.5242C85.145 36.1984 85.5885 36.045 85.8546 35.8149C86.2093 35.5849 86.298 35.2014 86.298 34.6645C86.298 33.9742 86.0319 33.5141 85.4998 33.3607C85.2337 33.2073 84.7903 33.2073 84.1694 33.2073H83.0164V36.1984Z" fill="black"/>
<path d="M91.9727 36.7369C91.9727 34.8962 92.6822 33.4389 94.1013 32.2118C95.5203 30.9847 97.2942 30.3711 99.5115 30.3711C101.729 30.3711 103.503 30.9847 104.922 32.2118C106.341 33.4389 107.05 34.9729 107.05 36.7369C107.05 38.5776 106.341 40.1115 104.922 41.4153C103.503 42.6425 101.729 43.2561 99.5115 43.2561C97.2942 43.2561 95.5203 42.6425 94.1013 41.4153C92.6822 40.1115 91.9727 38.5776 91.9727 36.7369ZM95.609 36.7369C95.609 37.8106 95.9638 38.731 96.6733 39.4212C97.3829 40.1115 98.3585 40.495 99.4228 40.495C100.576 40.495 101.463 40.1115 102.172 39.4212C102.882 38.731 103.237 37.8106 103.237 36.7369C103.237 35.7398 102.882 34.8962 102.172 34.2059C101.463 33.5156 100.487 33.2088 99.4228 33.2088C98.2698 33.2088 97.3829 33.5156 96.6733 34.2059C95.9638 34.8962 95.609 35.7398 95.609 36.7369Z" fill="black"/>
<path d="M109.27 43.0244V30.5996H112.817V35.4315H114.236L117.252 30.5996H121.066L117.163 36.5052L121.243 42.9477H117.34L114.325 37.8857H112.906V42.9477L109.27 43.0244Z" fill="black"/>
<path d="M122.836 43.1025V30.6777H131.882V33.2854H126.384V35.5863H130.73V38.194H126.384V40.5715H132.149V43.1792L122.836 43.1025Z" fill="black"/>
<path d="M134.367 43.1025V30.6777H139.423C140.664 30.6777 141.64 30.7544 142.261 30.9845C143.059 31.2913 143.769 31.7515 144.212 32.365C144.655 32.9786 144.922 33.7456 144.922 34.6659C144.922 35.3562 144.744 36.0465 144.389 36.66C144.035 37.2736 143.502 37.7338 142.793 38.0406C142.97 38.194 143.148 38.424 143.325 38.8075L146.075 43.1792H142.172L139.6 38.9609H137.915V43.1792L134.367 43.1025ZM137.915 36.3533H139.423C140.043 36.3533 140.487 36.1999 140.753 35.9698C141.108 35.7397 141.196 35.3562 141.196 34.8193C141.196 34.1291 140.93 33.6689 140.398 33.5155C140.132 33.3621 139.689 33.3621 139.068 33.3621H137.915V36.3533Z" fill="black"/>
</svg>
