<svg width="192" height="165" viewBox="0 0 192 165" fill="none" xmlns="http://www.w3.org/2000/svg">
<path d="M86.3965 145C126.437 145 158.896 112.541 158.896 72.5C158.896 32.4594 126.437 0 86.3965 0C46.3558 0 13.8965 32.4594 13.8965 72.5C13.8965 112.541 46.3558 145 86.3965 145Z" fill="#DDEBFF"/>
<g filter="url(#filter0_d_283_3331)">
<rect x="49.543" y="20.8778" width="75.2411" height="93.6633" rx="16" fill="url(#paint0_linear_283_3331)"/>
</g>
<rect x="56.1875" y="32.9612" width="50" height="1" rx="0.5" fill="black"/>
<rect x="56.1875" y="51.9612" width="60.4167" height="1" rx="0.5" fill="#D5D5D5"/>
<rect x="56.1875" y="70.9612" width="60.4167" height="1" rx="0.5" fill="#D5D5D5"/>
<rect x="56.1875" y="89.9612" width="60.4167" height="1" rx="0.5" fill="#D5D5D5"/>
<rect x="56.1875" y="108.961" width="60.4167" height="1" rx="0.5" fill="#D5D5D5"/>
<g filter="url(#filter1_d_283_3331)">
<path d="M169.861 10.5269H133.563C131.871 10.5269 130.5 11.9699 130.5 13.75V31.7053C130.5 33.4854 131.871 34.9285 133.563 34.9285H169.861C171.553 34.9285 172.924 33.4854 172.924 31.7053V13.75C172.924 11.9699 171.553 10.5269 169.861 10.5269Z" fill="white"/>
</g>
<path d="M139.563 26.583C141.565 26.583 143.188 24.96 143.188 22.958C143.188 20.956 141.565 19.333 139.563 19.333C137.56 19.333 135.938 20.956 135.938 22.958C135.938 24.96 137.56 26.583 139.563 26.583Z" fill="#CCC6D9"/>
<rect x="148.021" y="19.3331" width="19.3333" height="7.25" rx="3.625" fill="#D5D5D5"/>
<path fill-rule="evenodd" clip-rule="evenodd" d="M107.612 118.757C115.394 118.757 122.626 116.403 128.635 112.369L153.224 135.842L162.142 125.495L138.414 102.845C142.796 96.6777 145.372 89.1381 145.372 80.9968C145.372 60.1423 128.466 43.2364 107.612 43.2364C86.7575 43.2364 69.8516 60.1423 69.8516 80.9968C69.8516 101.851 86.7575 118.757 107.612 118.757ZM139.818 80.9968C139.818 98.6525 125.505 112.965 107.849 112.965C90.1936 112.965 75.8809 98.6525 75.8809 80.9968C75.8809 63.3411 90.1936 49.0284 107.849 49.0284C125.505 49.0284 139.818 63.3411 139.818 80.9968Z" fill="#CCC6D9"/>
<g filter="url(#filter2_b_283_3331)">
<path d="M107.845 113.583C126.03 113.583 140.772 98.9767 140.772 80.9584C140.772 62.9401 126.03 48.3334 107.845 48.3334C89.6599 48.3334 74.918 62.9401 74.918 80.9584C74.918 98.9767 89.6599 113.583 107.845 113.583Z" fill="white" fill-opacity="0.3"/>
</g>
<path d="M113.539 80.9584L121.507 73.0209C122.254 72.2357 122.663 71.1921 122.647 70.1119C122.632 69.0316 122.193 68 121.425 67.2361C120.656 66.4721 119.618 66.0362 118.531 66.0209C117.445 66.0056 116.395 66.4121 115.604 67.1541L107.618 75.0916L99.65 67.1541C99.2666 66.7508 98.8057 66.428 98.2945 66.2048C97.7834 65.9816 97.2324 65.8625 96.6742 65.8547C96.1159 65.8468 95.5618 65.9503 95.0445 66.159C94.5272 66.3677 94.0572 66.6774 93.6625 67.0698C93.2677 67.4622 92.9561 67.9292 92.7461 68.4434C92.5361 68.9575 92.432 69.5083 92.4399 70.0632C92.4478 70.618 92.5676 71.1657 92.7921 71.6737C93.0167 72.1817 93.3415 72.6398 93.7473 73.0209L101.729 80.9584L93.7473 88.8959C93.3415 89.277 93.0167 89.7351 92.7921 90.2431C92.5676 90.7512 92.4478 91.2988 92.4399 91.8536C92.432 92.4085 92.5361 92.9593 92.7461 93.4734C92.9561 93.9876 93.2677 94.4547 93.6625 94.847C94.0572 95.2394 94.5272 95.5491 95.0445 95.7578C95.5618 95.9665 96.1159 96.07 96.6742 96.0622C97.2324 96.0543 97.7834 95.9353 98.2945 95.7121C98.8057 95.4889 99.2666 95.166 99.65 94.7627L107.636 86.8252L115.622 94.7627C116.42 95.4609 117.455 95.8306 118.517 95.7964C119.58 95.7621 120.589 95.3266 121.339 94.5785C122.09 93.8305 122.525 92.8262 122.556 91.7703C122.587 90.7144 122.212 89.6865 121.507 88.8959L113.539 80.9584Z" fill="black"/>
<path d="M153.221 135.843L162.138 125.496L163.482 126.779C164.785 128.023 165.565 129.76 165.651 131.61C165.736 133.459 165.12 135.269 163.938 136.64C162.756 138.012 161.105 138.833 159.347 138.923C157.59 139.013 155.87 138.365 154.567 137.121L153.224 135.839L153.221 135.843Z" fill="#E1DCEB"/>
<path fill-rule="evenodd" clip-rule="evenodd" d="M29.7941 37.5621C29.7828 36.7005 29.6747 35.8315 29.4585 34.9566C28.7005 31.8862 25.3184 29.915 21.7188 29.4515C18.1206 28.988 14.3787 30.0427 12.9366 32.7135C12.1117 34.2406 11.998 35.5567 12.335 36.6663C12.6707 37.77 13.467 38.685 14.5479 39.3981C17.5616 41.3841 22.8395 41.7896 25.2473 40.9593C26.3609 40.5745 27.4489 40.1111 28.5084 39.5808C27.9026 43.0523 25.6455 46.3411 22.6333 49.3045C16.0868 55.7454 5.9279 60.634 0.395465 62.4314C0.098221 62.528 -0.0667702 62.8577 0.025674 63.1682C0.118118 63.4787 0.433845 63.6525 0.731089 63.5559C6.37303 61.7229 16.7297 56.7303 23.4055 50.1616C26.8544 46.7689 29.312 42.9498 29.7316 38.9346C37.5282 34.5837 43.931 26.6901 49.4051 20.0472C49.6085 19.8021 49.5815 19.4292 49.3454 19.2168C49.1093 19.0058 48.7537 19.0326 48.5503 19.2792C43.2995 25.6502 37.2053 33.229 29.7941 37.5621ZM28.6607 38.1934C28.7033 37.2249 28.6123 36.2415 28.3662 35.2492C27.7106 32.5917 24.6969 31.0201 21.5808 30.6191C19.6708 30.374 17.7067 30.576 16.1665 31.295C15.1979 31.7465 14.4 32.4016 13.9193 33.2929C13.2879 34.4619 13.1513 35.4616 13.4102 36.3098C13.669 37.164 14.3119 37.8502 15.1496 38.4013C17.8959 40.2121 22.7015 40.5968 24.8932 39.8407C26.186 39.3951 27.4404 38.8395 28.6607 38.1934Z" fill="black"/>
<circle cx="167.957" cy="93.6459" r="3.625" fill="#E3E3E3"/>
<path fill-rule="evenodd" clip-rule="evenodd" d="M31.0437 118.655C31.6906 118.412 32.3714 118.09 32.8963 117.623C33.5198 117.068 33.7734 116.354 33.9437 115.603C34.1623 114.637 34.2497 113.608 34.5147 112.641C34.6129 112.282 34.8018 112.146 34.8828 112.086C35.0877 111.934 35.2948 111.893 35.4896 111.908C35.7205 111.926 36.0376 112.018 36.2462 112.425C36.276 112.483 36.3146 112.572 36.3406 112.694C36.3596 112.783 36.3719 113.062 36.3919 113.177C36.4421 113.461 36.4841 113.744 36.5236 114.029C36.6548 114.977 36.7303 115.782 37.1448 116.653C37.7074 117.835 38.271 118.559 39.0354 118.879C39.7745 119.189 40.6583 119.131 41.7874 118.888C41.8949 118.861 42.0012 118.837 42.1064 118.818C42.6043 118.726 43.0802 119.07 43.1779 119.592C43.2757 120.114 42.9593 120.622 42.466 120.737C42.363 120.761 42.2615 120.783 42.1611 120.804C40.6352 121.202 38.8688 122.62 37.8423 123.863C37.5259 124.246 37.0627 125.317 36.5901 126C36.2414 126.504 35.8495 126.836 35.5205 126.953C35.3 127.032 35.1141 127.02 34.9605 126.98C34.7375 126.922 34.5523 126.795 34.4103 126.593C34.333 126.482 34.2612 126.334 34.227 126.145C34.2106 126.053 34.2088 125.822 34.2091 125.717C34.1128 125.368 33.995 125.028 33.9091 124.676C33.7042 123.837 33.3023 123.305 32.8249 122.604C32.3784 121.947 31.8988 121.534 31.1958 121.204C31.1043 121.181 30.3663 120.991 30.1056 120.881C29.7249 120.721 29.5435 120.453 29.4777 120.309C29.3658 120.064 29.3543 119.85 29.3766 119.672C29.4096 119.408 29.5219 119.183 29.7212 119.001C29.8446 118.888 30.0291 118.778 30.2759 118.724C30.4667 118.683 30.9727 118.658 31.0437 118.655ZM35.3732 117.287C35.4074 117.367 35.4439 117.448 35.4825 117.529C36.3064 119.261 37.2277 120.228 38.3476 120.697L38.3851 120.712C37.636 121.297 36.9578 121.952 36.4395 122.579C36.2261 122.837 35.9436 123.374 35.6383 123.924C35.361 122.975 34.9074 122.304 34.337 121.465C33.9013 120.824 33.4447 120.342 32.8837 119.949C33.3191 119.714 33.7344 119.439 34.0961 119.117C34.6984 118.582 35.0966 117.961 35.3732 117.287Z" fill="#CCC6D9"/>
<defs>
<filter id="filter0_d_283_3331" x="19.543" y="10.8778" width="135.24" height="153.663" filterUnits="userSpaceOnUse" color-interpolation-filters="sRGB">
<feFlood flood-opacity="0" result="BackgroundImageFix"/>
<feColorMatrix in="SourceAlpha" type="matrix" values="0 0 0 0 0 0 0 0 0 0 0 0 0 0 0 0 0 0 127 0" result="hardAlpha"/>
<feOffset dy="20"/>
<feGaussianBlur stdDeviation="15"/>
<feComposite in2="hardAlpha" operator="out"/>
<feColorMatrix type="matrix" values="0 0 0 0 0.570833 0 0 0 0 0.570833 0 0 0 0 0.570833 0 0 0 0.19 0"/>
<feBlend mode="normal" in2="BackgroundImageFix" result="effect1_dropShadow_283_3331"/>
<feBlend mode="normal" in="SourceGraphic" in2="effect1_dropShadow_283_3331" result="shape"/>
</filter>
<filter id="filter1_d_283_3331" x="123.5" y="1.52686" width="68.4238" height="50.4016" filterUnits="userSpaceOnUse" color-interpolation-filters="sRGB">
<feFlood flood-opacity="0" result="BackgroundImageFix"/>
<feColorMatrix in="SourceAlpha" type="matrix" values="0 0 0 0 0 0 0 0 0 0 0 0 0 0 0 0 0 0 127 0" result="hardAlpha"/>
<feOffset dx="6" dy="4"/>
<feGaussianBlur stdDeviation="6.5"/>
<feComposite in2="hardAlpha" operator="out"/>
<feColorMatrix type="matrix" values="0 0 0 0 0.104618 0 0 0 0 0.465612 0 0 0 0 0.545833 0 0 0 0.09 0"/>
<feBlend mode="normal" in2="BackgroundImageFix" result="effect1_dropShadow_283_3331"/>
<feBlend mode="normal" in="SourceGraphic" in2="effect1_dropShadow_283_3331" result="shape"/>
</filter>
<filter id="filter2_b_283_3331" x="66.918" y="40.3334" width="81.8535" height="81.25" filterUnits="userSpaceOnUse" color-interpolation-filters="sRGB">
<feFlood flood-opacity="0" result="BackgroundImageFix"/>
<feGaussianBlur in="BackgroundImageFix" stdDeviation="4"/>
<feComposite in2="SourceAlpha" operator="in" result="effect1_backgroundBlur_283_3331"/>
<feBlend mode="normal" in="SourceGraphic" in2="effect1_backgroundBlur_283_3331" result="shape"/>
</filter>
<linearGradient id="paint0_linear_283_3331" x1="87.1635" y1="20.8778" x2="87.1635" y2="114.541" gradientUnits="userSpaceOnUse">
<stop stop-color="white"/>
<stop offset="0.71875" stop-color="#FAFAFA"/>
</linearGradient>
</defs>
</svg>
