<svg width="21" height="21" viewBox="0 0 21 21" fill="none" xmlns="http://www.w3.org/2000/svg">
<path d="M11.6462 11.6681L20.05 11.7414C20.3484 11.744 20.592 11.5046 20.5946 11.2063L20.609 9.59984C20.6102 9.45684 20.5546 9.31904 20.4541 9.21685C20.3537 9.11464 20.2169 9.05663 20.0739 9.05534L11.6698 8.98231L11.7434 0.578186C11.7446 0.435186 11.689 0.297388 11.5886 0.195175C11.4881 0.0929862 11.3513 0.0349509 11.2083 0.0336832L9.60189 0.0200106C9.30352 0.0173672 9.05994 0.256727 9.05733 0.555151L8.98396 8.95899L0.58106 8.88558C0.282709 8.88306 0.0391361 9.12242 0.036499 9.42072L0.022181 11.0272C0.0209288 11.1702 0.076567 11.308 0.177012 11.4102C0.277457 11.5124 0.414263 11.5704 0.557286 11.5717L8.96041 11.6447L8.88676 20.0479C8.88556 20.1909 8.94117 20.3287 9.04162 20.4309C9.14208 20.5331 9.27889 20.5911 9.42184 20.5924L11.0283 20.6061C11.3266 20.6087 11.5702 20.3693 11.5729 20.071L11.6462 11.6681Z" fill="#26AB5B"/>
</svg>
