<svg xmlns="http://www.w3.org/2000/svg" width="24" height="24" viewBox="0 0 24 24" fill="none">
<path fill-rule="evenodd" clip-rule="evenodd" d="M6.24848 5.67411C9.07978 2.84281 13.6702 2.84281 16.5015 5.67411C19.3328 8.50542 19.3328 13.0959 16.5015 15.9272C13.6702 18.7585 9.07978 18.7585 6.24848 15.9272C3.41717 13.0959 3.41717 8.50542 6.24848 5.67411ZM17.5622 4.61345C14.1451 1.19637 8.6049 1.19637 5.18782 4.61345C1.77073 8.03054 1.77073 13.5707 5.18782 16.9878C8.42626 20.2263 13.5716 20.3956 17.0095 17.4957L20.9001 21.3864C21.193 21.6793 21.6679 21.6793 21.9608 21.3864C22.2537 21.0935 22.2537 20.6187 21.9608 20.3258L18.0701 16.4351C20.9699 12.9972 20.8006 7.85189 17.5622 4.61345Z" fill="#BFC1C7"/>
</svg>