<svg width="27" height="27" viewBox="0 0 24 24" fill="none" xmlns="http://www.w3.org/2000/svg">
<path fill-rule="evenodd" clip-rule="evenodd" d="M6.2475 5.67411C9.0788 2.84281 13.6692 2.84281 16.5005 5.67411C19.3318 8.50542 19.3318 13.0959 16.5005 15.9272C13.6692 18.7585 9.0788 18.7585 6.2475 15.9272C3.4162 13.0959 3.4162 8.50542 6.2475 5.67411ZM17.5612 4.61345C14.1441 1.19637 8.60393 1.19637 5.18684 4.61345C1.76975 8.03054 1.76975 13.5707 5.18684 16.9878C8.42528 20.2263 13.5706 20.3956 17.0085 17.4957L20.8992 21.3864C21.192 21.6793 21.6669 21.6793 21.9598 21.3864C22.2527 21.0935 22.2527 20.6187 21.9598 20.3258L18.0691 16.4351C20.969 12.9972 20.7996 7.85189 17.5612 4.61345Z" fill="#13ad64"/>
</svg>
