<svg xmlns="http://www.w3.org/2000/svg" width='18' height='18' viewBox="0 0 17.52 17.48"><defs><style>.cls-1{fill:#fff;}</style></defs><g id="Слой_2" data-name="Слой 2"><g id="Слой_1-2" data-name="Слой 1"><path class="cls-1" d="M17.11.42A1.43,1.43,0,0,0,16.42,0a1.47,1.47,0,0,0-.78,0L1,5a1.4,1.4,0,0,0-.69.47A1.44,1.44,0,0,0,0,6.2,1.39,1.39,0,0,0,.18,7a1.35,1.35,0,0,0,.6.58l6.07,3,3,6.09a1.41,1.41,0,0,0,.53.58,1.45,1.45,0,0,0,.76.21h.1a1.5,1.5,0,0,0,.78-.3,1.55,1.55,0,0,0,.48-.7L17.45,1.89a1.48,1.48,0,0,0,0-.78A1.43,1.43,0,0,0,17.11.42ZM1.63,6.33,14.4,2.07,7.31,9.16Zm9.58,9.57L8.37,10.22l7.09-7.09Z"/></g></g></svg>