<svg width="24" height="24" viewBox="0 0 30 30" fill="none" xmlns="http://www.w3.org/2000/svg">
<path fill-rule="evenodd" clip-rule="evenodd" d="M13.476 1.52101C15.438 -0.378986 18.56 -0.353955 20.491 1.57704L26.27 7.355C28.184 9.27 28.227 12.36 26.366 14.327L14.022 27.375C13.645 27.774 13.119 28 12.569 28H3C1.343 28 0 26.657 0 25V15.424C0 14.882 0.219971 14.364 0.607971 13.987L13.476 1.52101ZM19.077 2.99105C17.918 1.83305 16.045 1.81803 14.868 2.95803L2 15.424V25C2 25.552 2.448 26 3 26H12.569L24.913 12.953C26.03 11.773 26.004 9.91804 24.855 8.77004L19.077 2.99105ZM7.5 19C6.672 19 6 19.672 6 20.5C6 21.328 6.672 22 7.5 22C8.328 22 9 21.328 9 20.5C9 19.672 8.328 19 7.5 19ZM4 20.5C4 18.567 5.567 17 7.5 17C9.433 17 11 18.567 11 20.5C11 22.433 9.433 24 7.5 24C5.567 24 4 22.433 4 20.5Z" fill="#13ad64"/>
</svg>
