<svg width="30" height="29" viewBox="0 0 30 29" fill="none" xmlns="http://www.w3.org/2000/svg">
<path d="M24.7734 25.375C26.4418 25.375 27.7943 24.0225 27.7943 22.3542C27.7943 19.5418 25.4359 18.3652 22.9609 17.8734M18.1276 13.2917C20.797 13.2917 22.9609 11.1277 22.9609 8.45833C22.9609 5.78896 20.797 3.625 18.1276 3.625M4.23177 25.3751H17.5234C19.1918 25.3751 20.5443 24.0227 20.5443 22.3543C20.5443 17.4234 13.2943 17.521 10.8776 17.521C8.46094 17.521 1.21094 17.4234 1.21094 22.3543C1.21094 24.0227 2.56341 25.3751 4.23177 25.3751ZM15.7109 8.45833C15.7109 11.1277 13.547 13.2917 10.8776 13.2917C8.20823 13.2917 6.04427 11.1277 6.04427 8.45833C6.04427 5.78896 8.20823 3.625 10.8776 3.625C13.547 3.625 15.7109 5.78896 15.7109 8.45833Z" stroke="url(#paint0_linear_72_10061)" stroke-width="1.5" stroke-linecap="round" stroke-linejoin="round"/>
<defs>
<linearGradient id="paint0_linear_72_10061" x1="14.5026" y1="3.625" x2="14.5026" y2="25.3751" gradientUnits="userSpaceOnUse">
<stop stop-color="#2CCC9A"/>
<stop offset="1" stop-color="#669ED9"/>
</linearGradient>
</defs>
</svg>
